<svg width="17" height="17" viewBox="0 0 17 17" fill="none" xmlns="http://www.w3.org/2000/svg">
<path d="M16.7 8.59998C16.7 9.69998 16.7 10.9 16.7 12C16.7 14 15.5 15.6 13.9 16.3C13.3 16.6 12.6 16.7 11.9 16.7C9.7 16.7 7.5 16.7 5.3 16.7C3.6 16.7 2.3 16 1.3 14.6C0.8 13.9 0.5 13.1 0.5 12.2C0.5 9.89998 0.5 7.49998 0.5 5.19998C0.5 3.29998 1.4 1.89998 3.1 1.09998C3.8 0.699976 4.6 0.599976 5.4 0.599976C7.5 0.599976 9.7 0.599976 11.8 0.599976C13.5 0.599976 14.8 1.19998 15.9 2.59998C16.5 3.29998 16.7 4.19998 16.7 5.09998C16.7 6.19998 16.7 7.39998 16.7 8.59998ZM1.7 8.59998C1.7 9.79998 1.7 11 1.7 12.2C1.7 12.7 1.8 13.2 2.1 13.7C2.8 14.9 3.9 15.5 5.3 15.5C7.5 15.5 9.7 15.5 11.9 15.5C12.4 15.5 13 15.4 13.5 15.2C14.8 14.6 15.6 13.6 15.6 12C15.6 9.69998 15.6 7.29998 15.6 4.99998C15.6 4.29998 15.4 3.69998 15 3.19998C14.2 2.19998 13.2 1.69998 12 1.69998C9.8 1.69998 7.6 1.69998 5.4 1.69998C4.9 1.69998 4.5 1.79998 4 1.99998C2.8 2.39998 1.7 3.59998 1.7 5.29998C1.7 6.29998 1.7 7.49998 1.7 8.59998Z" fill="#57984C"/>
<path d="M8.59999 12.1C6.49999 12.1 4.79999 10.4 4.79999 8.3C4.79999 6.2 6.49999 4.5 8.59999 4.5C10.7 4.5 12.4 6.2 12.4 8.3C12.4 10.4 10.7 12.1 8.59999 12.1ZM8.59999 10.9C9.99999 10.9 11.2 9.7 11.2 8.3C11.2 6.9 9.99999 5.8 8.59999 5.8C7.19999 5.8 5.99999 6.9 5.99999 8.4C5.99999 9.7 7.19999 10.9 8.59999 10.9Z" fill="#57984C"/>
<path d="M12.9 3.40002C13.3 3.40002 13.7 3.80002 13.7 4.20002C13.7 4.70002 13.3 5.00002 12.9 5.00002C12.5 5.00002 12.1 4.60002 12.1 4.20002C12.1 3.80002 12.4 3.40002 12.9 3.40002Z" fill="#57984C"/>
</svg>
