<svg width="39" height="39" viewBox="0 0 39 39" fill="none" xmlns="http://www.w3.org/2000/svg">
<g filter="url(#filter0_d_5_57)">
<path d="M19.6 2.80005C26.6 2.80005 32.3 8.50005 32.3 15.5C32.3 22.5 26.6 28.2001 19.6 28.2001C12.6 28.2001 6.79999 22.6 6.79999 15.6C6.79999 8.60005 12.6 2.80005 19.6 2.80005ZM19.6 0.300049C11.1 0.300049 4.29999 7.10005 4.29999 15.6C4.29999 24 11.1 30.9 19.6 30.9C28 30.9 34.9 24.1 34.9 15.6C34.9 7.10005 28 0.300049 19.6 0.300049Z" fill="#57984C"/>
<path d="M27.7 15.6C27.7 16.7 27.7 17.9 27.7 19C27.7 21 26.5 22.6 24.9 23.3C24.3 23.6 23.6 23.7 22.9 23.7C20.7 23.7 18.5 23.7 16.3 23.7C14.6 23.7 13.3 23 12.3 21.6C11.8 20.9 11.5 20.1 11.5 19.2C11.5 16.9 11.5 14.5 11.5 12.2C11.5 10.3 12.4 8.89998 14.1 8.09998C14.8 7.69998 15.6 7.59998 16.4 7.59998C18.5 7.59998 20.7 7.59998 22.8 7.59998C24.5 7.59998 25.8 8.19998 26.9 9.59998C27.5 10.3 27.7 11.2 27.7 12.1C27.7 13.2 27.7 14.4 27.7 15.6ZM12.7 15.6C12.7 16.8 12.7 18 12.7 19.2C12.7 19.7 12.8 20.2 13.1 20.7C13.8 21.9 14.9 22.5 16.3 22.5C18.5 22.5 20.7 22.5 22.9 22.5C23.4 22.5 24 22.4 24.5 22.2C25.8 21.6 26.6 20.6 26.6 19C26.6 16.7 26.6 14.3 26.6 12C26.6 11.3 26.4 10.7 26 10.2C25.2 9.19998 24.2 8.69998 23 8.69998C20.8 8.69998 18.6 8.69998 16.4 8.69998C15.9 8.69998 15.5 8.79998 15 8.99998C13.8 9.39998 12.7 10.6 12.7 12.3C12.7 13.3 12.7 14.5 12.7 15.6Z" fill="#57984C"/>
<path d="M19.6 19.1C17.5 19.1 15.8 17.4 15.8 15.3C15.8 13.2 17.5 11.5 19.6 11.5C21.7 11.5 23.4 13.2 23.4 15.3C23.4 17.4 21.7 19.1 19.6 19.1ZM19.6 17.9C21 17.9 22.2 16.7 22.2 15.3C22.2 13.9 21 12.8 19.6 12.8C18.2 12.8 17 13.9 17 15.4C17 16.7 18.2 17.9 19.6 17.9Z" fill="#57984C"/>
<path d="M23.9 10.4C24.3 10.4 24.7 10.8 24.7 11.2C24.7 11.7 24.3 12 23.9 12C23.5 12 23.1 11.6 23.1 11.2C23.1 10.8 23.4 10.4 23.9 10.4Z" fill="#57984C"/>
</g>
<defs>
<filter id="filter0_d_5_57" x="0" y="0" width="39.2" height="39.2" filterUnits="userSpaceOnUse" color-interpolation-filters="sRGB">
<feFlood flood-opacity="0" result="BackgroundImageFix"/>
<feColorMatrix in="SourceAlpha" type="matrix" values="0 0 0 0 0 0 0 0 0 0 0 0 0 0 0 0 0 0 127 0" result="hardAlpha"/>
<feOffset dy="4"/>
<feGaussianBlur stdDeviation="2"/>
<feComposite in2="hardAlpha" operator="out"/>
<feColorMatrix type="matrix" values="0 0 0 0 0 0 0 0 0 0 0 0 0 0 0 0 0 0 0.25 0"/>
<feBlend mode="normal" in2="BackgroundImageFix" result="effect1_dropShadow_5_57"/>
<feBlend mode="normal" in="SourceGraphic" in2="effect1_dropShadow_5_57" result="shape"/>
</filter>
</defs>
</svg>
